ISO-10303-21;
HEADER;
/* Generated by software containing ST-Developer
 * from STEP Tools, Inc. (www.steptools.com) 
 */
/* OPTION: using custom renumber hook */

FILE_DESCRIPTION(
/* description */ ('STEP AP242 Edition 2',
'CAx-IF Rec.Pracs.---Representation and Presentation of Product Manufa
cturing Information (PMI)---4.0---2014-10-13',
'CAx-IF Rec.Pracs.---3D Tessellated Geometry---0.4---2014-09-14','2;1',
'CAx-IF Rec.Pracs.---User Defined Attributes---1.5---2016-08-15'),
/* implementation_level */ '2;1');

FILE_NAME(
/* name */ 'Part Studio 1',
/* time_stamp */ '2026-09-29T10:45:01Z',
/* author */ (''),
/* organization */ (''),
/* preprocessor_version */ 'ST-DEVELOPER v20',
/* originating_system */ 'ONSHAPE BY PTC INC, 1.221',
/* authorisation */ '  ');

FILE_SCHEMA (('AP242_MANAGED_MODEL_BASED_3D_ENGINEERING_MIM_LF { 1 0 10303 442 3 1 4 }'));
ENDSEC;

DATA;
#10=ADVANCED_BREP_SHAPE_REPRESENTATION('',(#47),#1271);
#11=CYLINDRICAL_SURFACE('',#724,0.0036);
#12=CYLINDRICAL_SURFACE('',#729,0.01);
#13=CYLINDRICAL_SURFACE('',#731,0.011);
#14=CIRCLE('',#699,0.01);
#15=CIRCLE('',#700,0.0036);
#16=CIRCLE('',#702,0.01);
#17=CIRCLE('',#703,0.0036);
#18=CIRCLE('',#732,0.011);
#19=CIRCLE('',#733,0.011);
#20=PLANE('',#698);
#21=PLANE('',#701);
#22=PLANE('',#704);
#23=PLANE('',#705);
#24=PLANE('',#706);
#25=PLANE('',#707);
#26=PLANE('',#708);
#27=PLANE('',#709);
#28=PLANE('',#710);
#29=PLANE('',#711);
#30=PLANE('',#712);
#31=PLANE('',#713);
#32=PLANE('',#714);
#33=PLANE('',#715);
#34=PLANE('',#716);
#35=PLANE('',#717);
#36=PLANE('',#718);
#37=PLANE('',#719);
#38=PLANE('',#720);
#39=PLANE('',#721);
#40=PLANE('',#722);
#41=PLANE('',#723);
#42=PLANE('',#725);
#43=PLANE('',#726);
#44=PLANE('',#727);
#45=PLANE('',#728);
#46=CLOSED_SHELL('',(#621,#622,#623,#624,#625,#626,#627,#628,#629,#630,
#631,#632,#633,#634,#635,#636,#637,#638,#639,#640,#641,#642,#643,#644,#645,
#646,#647,#648));
#47=MANIFOLD_SOLID_BREP('Part 2',#46);
#48=SHAPE_REPRESENTATION_RELATIONSHIP('','',#691,#52);
#49=SHAPE_REPRESENTATION_RELATIONSHIP('','',#692,#53);
#50=SHAPE_REPRESENTATION_RELATIONSHIP('','',#693,#10);
#51=SHAPE_REPRESENTATION_RELATIONSHIP('','',#694,#54);
#52=MANIFOLD_SURFACE_SHAPE_REPRESENTATION('',(#684),#1269);
#53=MANIFOLD_SURFACE_SHAPE_REPRESENTATION('',(#685),#1270);
#54=MANIFOLD_SURFACE_SHAPE_REPRESENTATION('',(#686),#1272);
#55=LINE('',#980,#131);
#56=LINE('',#994,#132);
#57=LINE('',#1087,#133);
#58=LINE('',#1101,#134);
#59=LINE('',#1108,#135);
#60=LINE('',#1111,#136);
#61=LINE('',#1113,#137);
#62=LINE('',#1115,#138);
#63=LINE('',#1116,#139);
#64=LINE('',#1119,#140);
#65=LINE('',#1121,#141);
#66=LINE('',#1123,#142);
#67=LINE('',#1124,#143);
#68=LINE('',#1127,#144);
#69=LINE('',#1129,#145);
#70=LINE('',#1131,#146);
#71=LINE('',#1132,#147);
#72=LINE('',#1135,#148);
#73=LINE('',#1137,#149);
#74=LINE('',#1139,#150);
#75=LINE('',#1140,#151);
#76=LINE('',#1143,#152);
#77=LINE('',#1145,#153);
#78=LINE('',#1147,#154);
#79=LINE('',#1148,#155);
#80=LINE('',#1151,#156);
#81=LINE('',#1153,#157);
#82=LINE('',#1155,#158);
#83=LINE('',#1159,#159);
#84=LINE('',#1162,#160);
#85=LINE('',#1164,#161);
#86=LINE('',#1166,#162);
#87=LINE('',#1167,#163);
#88=LINE('',#1170,#164);
#89=LINE('',#1172,#165);
#90=LINE('',#1174,#166);
#91=LINE('',#1175,#167);
#92=LINE('',#1178,#168);
#93=LINE('',#1180,#169);
#94=LINE('',#1182,#170);
#95=LINE('',#1183,#171);
#96=LINE('',#1186,#172);
#97=LINE('',#1188,#173);
#98=LINE('',#1190,#174);
#99=LINE('',#1191,#175);
#100=LINE('',#1194,#176);
#101=LINE('',#1196,#177);
#102=LINE('',#1198,#178);
#103=LINE('',#1201,#179);
#104=LINE('',#1204,#180);
#105=LINE('',#1206,#181);
#106=LINE('',#1208,#182);
#107=LINE('',#1210,#183);
#108=LINE('',#1211,#184);
#109=LINE('',#1213,#185);
#110=LINE('',#1215,#186);
#111=LINE('',#1218,#187);
#112=LINE('',#1219,#188);
#113=LINE('',#1221,#189);
#114=LINE('',#1223,#190);
#115=LINE('',#1226,#191);
#116=LINE('',#1227,#192);
#117=LINE('',#1229,#193);
#118=LINE('',#1231,#194);
#119=LINE('',#1234,#195);
#120=LINE('',#1235,#196);
#121=LINE('',#1237,#197);
#122=LINE('',#1239,#198);
#123=LINE('',#1242,#199);
#124=LINE('',#1243,#200);
#125=LINE('',#1245,#201);
#126=LINE('',#1247,#202);
#127=LINE('',#1251,#203);
#128=LINE('',#1252,#204);
#129=LINE('',#1254,#205);
#130=LINE('',#1256,#206);
#131=VECTOR('',#736,1.);
#132=VECTOR('',#737,1.);
#133=VECTOR('',#740,1.);
#134=VECTOR('',#741,1.);
#135=VECTOR('',#750,1.);
#136=VECTOR('',#751,1.);
#137=VECTOR('',#752,1.);
#138=VECTOR('',#753,1.);
#139=VECTOR('',#754,1.);
#140=VECTOR('',#755,1.);
#141=VECTOR('',#756,1.);
#142=VECTOR('',#757,1.);
#143=VECTOR('',#758,1.);
#144=VECTOR('',#759,1.);
#145=VECTOR('',#760,1.);
#146=VECTOR('',#761,1.);
#147=VECTOR('',#762,1.);
#148=VECTOR('',#763,1.);
#149=VECTOR('',#764,1.);
#150=VECTOR('',#765,1.);
#151=VECTOR('',#766,1.);
#152=VECTOR('',#767,1.);
#153=VECTOR('',#768,1.);
#154=VECTOR('',#769,1.);
#155=VECTOR('',#770,1.);
#156=VECTOR('',#771,1.);
#157=VECTOR('',#772,1.);
#158=VECTOR('',#773,1.);
#159=VECTOR('',#778,1.);
#160=VECTOR('',#779,1.);
#161=VECTOR('',#780,1.);
#162=VECTOR('',#781,1.);
#163=VECTOR('',#782,1.);
#164=VECTOR('',#783,1.);
#165=VECTOR('',#784,1.);
#166=VECTOR('',#785,1.);
#167=VECTOR('',#786,1.);
#168=VECTOR('',#787,1.);
#169=VECTOR('',#788,1.);
#170=VECTOR('',#789,1.);
#171=VECTOR('',#790,1.);
#172=VECTOR('',#791,1.);
#173=VECTOR('',#792,1.);
#174=VECTOR('',#793,1.);
#175=VECTOR('',#794,1.);
#176=VECTOR('',#795,1.);
#177=VECTOR('',#796,1.);
#178=VECTOR('',#797,1.);
#179=VECTOR('',#800,1.);
#180=VECTOR('',#801,1.);
#181=VECTOR('',#802,1.);
#182=VECTOR('',#803,1.);
#183=VECTOR('',#806,1.);
#184=VECTOR('',#807,1.);
#185=VECTOR('',#810,1.);
#186=VECTOR('',#813,1.);
#187=VECTOR('',#818,1.);
#188=VECTOR('',#819,1.);
#189=VECTOR('',#822,1.);
#190=VECTOR('',#825,1.);
#191=VECTOR('',#830,1.);
#192=VECTOR('',#831,1.);
#193=VECTOR('',#834,1.);
#194=VECTOR('',#837,1.);
#195=VECTOR('',#842,1.);
#196=VECTOR('',#843,1.);
#197=VECTOR('',#846,1.);
#198=VECTOR('',#849,1.);
#199=VECTOR('',#854,1.);
#200=VECTOR('',#855,1.);
#201=VECTOR('',#858,1.);
#202=VECTOR('',#861,1.);
#203=VECTOR('',#868,1.);
#204=VECTOR('',#869,1.);
#205=VECTOR('',#872,1.);
#206=VECTOR('',#875,1.);
#207=ORIENTED_EDGE('',*,*,#369,.F.);
#208=ORIENTED_EDGE('',*,*,#370,.F.);
#209=ORIENTED_EDGE('',*,*,#371,.T.);
#210=ORIENTED_EDGE('',*,*,#372,.T.);
#211=ORIENTED_EDGE('',*,*,#373,.F.);
#212=ORIENTED_EDGE('',*,*,#374,.F.);
#213=ORIENTED_EDGE('',*,*,#375,.T.);
#214=ORIENTED_EDGE('',*,*,#376,.T.);
#215=ORIENTED_EDGE('',*,*,#377,.F.);
#216=ORIENTED_EDGE('',*,*,#378,.F.);
#217=ORIENTED_EDGE('',*,*,#379,.F.);
#218=ORIENTED_EDGE('',*,*,#380,.T.);
#219=ORIENTED_EDGE('',*,*,#381,.T.);
#220=ORIENTED_EDGE('',*,*,#382,.F.);
#221=ORIENTED_EDGE('',*,*,#383,.F.);
#222=ORIENTED_EDGE('',*,*,#384,.T.);
#223=ORIENTED_EDGE('',*,*,#385,.T.);
#224=ORIENTED_EDGE('',*,*,#386,.F.);
#225=ORIENTED_EDGE('',*,*,#387,.F.);
#226=ORIENTED_EDGE('',*,*,#388,.T.);
#227=ORIENTED_EDGE('',*,*,#389,.T.);
#228=ORIENTED_EDGE('',*,*,#390,.F.);
#229=ORIENTED_EDGE('',*,*,#391,.F.);
#230=ORIENTED_EDGE('',*,*,#392,.T.);
#231=ORIENTED_EDGE('',*,*,#393,.T.);
#232=ORIENTED_EDGE('',*,*,#394,.F.);
#233=ORIENTED_EDGE('',*,*,#395,.F.);
#234=ORIENTED_EDGE('',*,*,#396,.T.);
#235=ORIENTED_EDGE('',*,*,#397,.T.);
#236=ORIENTED_EDGE('',*,*,#398,.F.);
#237=ORIENTED_EDGE('',*,*,#399,.F.);
#238=ORIENTED_EDGE('',*,*,#400,.T.);
#239=ORIENTED_EDGE('',*,*,#401,.T.);
#240=ORIENTED_EDGE('',*,*,#402,.F.);
#241=ORIENTED_EDGE('',*,*,#403,.T.);
#242=ORIENTED_EDGE('',*,*,#404,.F.);
#243=ORIENTED_EDGE('',*,*,#405,.T.);
#244=ORIENTED_EDGE('',*,*,#406,.T.);
#245=ORIENTED_EDGE('',*,*,#407,.F.);
#246=ORIENTED_EDGE('',*,*,#408,.F.);
#247=ORIENTED_EDGE('',*,*,#409,.T.);
#248=ORIENTED_EDGE('',*,*,#410,.T.);
#249=ORIENTED_EDGE('',*,*,#411,.F.);
#250=ORIENTED_EDGE('',*,*,#412,.T.);
#251=ORIENTED_EDGE('',*,*,#413,.T.);
#252=ORIENTED_EDGE('',*,*,#414,.F.);
#253=ORIENTED_EDGE('',*,*,#415,.F.);
#254=ORIENTED_EDGE('',*,*,#416,.F.);
#255=ORIENTED_EDGE('',*,*,#417,.T.);
#256=ORIENTED_EDGE('',*,*,#418,.T.);
#257=ORIENTED_EDGE('',*,*,#419,.F.);
#258=ORIENTED_EDGE('',*,*,#420,.F.);
#259=ORIENTED_EDGE('',*,*,#421,.T.);
#260=ORIENTED_EDGE('',*,*,#422,.T.);
#261=ORIENTED_EDGE('',*,*,#423,.F.);
#262=ORIENTED_EDGE('',*,*,#424,.T.);
#263=ORIENTED_EDGE('',*,*,#425,.F.);
#264=ORIENTED_EDGE('',*,*,#426,.T.);
#265=ORIENTED_EDGE('',*,*,#427,.T.);
#266=ORIENTED_EDGE('',*,*,#428,.F.);
#267=ORIENTED_EDGE('',*,*,#412,.F.);
#268=ORIENTED_EDGE('',*,*,#429,.F.);
#269=ORIENTED_EDGE('',*,*,#379,.T.);
#270=ORIENTED_EDGE('',*,*,#430,.T.);
#271=ORIENTED_EDGE('',*,*,#415,.T.);
#272=ORIENTED_EDGE('',*,*,#431,.F.);
#273=ORIENTED_EDGE('',*,*,#380,.F.);
#274=ORIENTED_EDGE('',*,*,#429,.T.);
#275=ORIENTED_EDGE('',*,*,#414,.T.);
#276=ORIENTED_EDGE('',*,*,#432,.F.);
#277=ORIENTED_EDGE('',*,*,#381,.F.);
#278=ORIENTED_EDGE('',*,*,#431,.T.);
#279=ORIENTED_EDGE('',*,*,#413,.F.);
#280=ORIENTED_EDGE('',*,*,#430,.F.);
#281=ORIENTED_EDGE('',*,*,#382,.T.);
#282=ORIENTED_EDGE('',*,*,#432,.T.);
#283=ORIENTED_EDGE('',*,*,#384,.F.);
#284=ORIENTED_EDGE('',*,*,#433,.F.);
#285=ORIENTED_EDGE('',*,*,#416,.T.);
#286=ORIENTED_EDGE('',*,*,#434,.T.);
#287=ORIENTED_EDGE('',*,*,#383,.T.);
#288=ORIENTED_EDGE('',*,*,#435,.F.);
#289=ORIENTED_EDGE('',*,*,#417,.F.);
#290=ORIENTED_EDGE('',*,*,#433,.T.);
#291=ORIENTED_EDGE('',*,*,#386,.T.);
#292=ORIENTED_EDGE('',*,*,#436,.F.);
#293=ORIENTED_EDGE('',*,*,#418,.F.);
#294=ORIENTED_EDGE('',*,*,#435,.T.);
#295=ORIENTED_EDGE('',*,*,#385,.F.);
#296=ORIENTED_EDGE('',*,*,#434,.F.);
#297=ORIENTED_EDGE('',*,*,#419,.T.);
#298=ORIENTED_EDGE('',*,*,#436,.T.);
#299=ORIENTED_EDGE('',*,*,#388,.F.);
#300=ORIENTED_EDGE('',*,*,#437,.F.);
#301=ORIENTED_EDGE('',*,*,#408,.T.);
#302=ORIENTED_EDGE('',*,*,#438,.T.);
#303=ORIENTED_EDGE('',*,*,#387,.T.);
#304=ORIENTED_EDGE('',*,*,#439,.F.);
#305=ORIENTED_EDGE('',*,*,#409,.F.);
#306=ORIENTED_EDGE('',*,*,#437,.T.);
#307=ORIENTED_EDGE('',*,*,#390,.T.);
#308=ORIENTED_EDGE('',*,*,#440,.F.);
#309=ORIENTED_EDGE('',*,*,#410,.F.);
#310=ORIENTED_EDGE('',*,*,#439,.T.);
#311=ORIENTED_EDGE('',*,*,#389,.F.);
#312=ORIENTED_EDGE('',*,*,#438,.F.);
#313=ORIENTED_EDGE('',*,*,#411,.T.);
#314=ORIENTED_EDGE('',*,*,#440,.T.);
#315=ORIENTED_EDGE('',*,*,#392,.F.);
#316=ORIENTED_EDGE('',*,*,#441,.F.);
#317=ORIENTED_EDGE('',*,*,#420,.T.);
#318=ORIENTED_EDGE('',*,*,#442,.T.);
#319=ORIENTED_EDGE('',*,*,#391,.T.);
#320=ORIENTED_EDGE('',*,*,#443,.F.);
#321=ORIENTED_EDGE('',*,*,#421,.F.);
#322=ORIENTED_EDGE('',*,*,#441,.T.);
#323=ORIENTED_EDGE('',*,*,#394,.T.);
#324=ORIENTED_EDGE('',*,*,#444,.F.);
#325=ORIENTED_EDGE('',*,*,#422,.F.);
#326=ORIENTED_EDGE('',*,*,#443,.T.);
#327=ORIENTED_EDGE('',*,*,#393,.F.);
#328=ORIENTED_EDGE('',*,*,#442,.F.);
#329=ORIENTED_EDGE('',*,*,#423,.T.);
#330=ORIENTED_EDGE('',*,*,#444,.T.);
#331=ORIENTED_EDGE('',*,*,#396,.F.);
#332=ORIENTED_EDGE('',*,*,#445,.F.);
#333=ORIENTED_EDGE('',*,*,#404,.T.);
#334=ORIENTED_EDGE('',*,*,#446,.T.);
#335=ORIENTED_EDGE('',*,*,#395,.T.);
#336=ORIENTED_EDGE('',*,*,#447,.F.);
#337=ORIENTED_EDGE('',*,*,#405,.F.);
#338=ORIENTED_EDGE('',*,*,#445,.T.);
#339=ORIENTED_EDGE('',*,*,#398,.T.);
#340=ORIENTED_EDGE('',*,*,#448,.F.);
#341=ORIENTED_EDGE('',*,*,#406,.F.);
#342=ORIENTED_EDGE('',*,*,#447,.T.);
#343=ORIENTED_EDGE('',*,*,#397,.F.);
#344=ORIENTED_EDGE('',*,*,#446,.F.);
#345=ORIENTED_EDGE('',*,*,#407,.T.);
#346=ORIENTED_EDGE('',*,*,#448,.T.);
#347=ORIENTED_EDGE('',*,*,#424,.F.);
#348=ORIENTED_EDGE('',*,*,#378,.T.);
#349=ORIENTED_EDGE('',*,*,#400,.F.);
#350=ORIENTED_EDGE('',*,*,#449,.F.);
#351=ORIENTED_EDGE('',*,*,#425,.T.);
#352=ORIENTED_EDGE('',*,*,#450,.T.);
#353=ORIENTED_EDGE('',*,*,#399,.T.);
#354=ORIENTED_EDGE('',*,*,#451,.F.);
#355=ORIENTED_EDGE('',*,*,#426,.F.);
#356=ORIENTED_EDGE('',*,*,#449,.T.);
#357=ORIENTED_EDGE('',*,*,#402,.T.);
#358=ORIENTED_EDGE('',*,*,#452,.F.);
#359=ORIENTED_EDGE('',*,*,#427,.F.);
#360=ORIENTED_EDGE('',*,*,#451,.T.);
#361=ORIENTED_EDGE('',*,*,#401,.F.);
#362=ORIENTED_EDGE('',*,*,#450,.F.);
#363=ORIENTED_EDGE('',*,*,#428,.T.);
#364=ORIENTED_EDGE('',*,*,#452,.T.);
#365=ORIENTED_EDGE('',*,*,#403,.F.);
#366=ORIENTED_EDGE('',*,*,#377,.T.);
#367=ORIENTED_EDGE('',*,*,#453,.T.);
#368=ORIENTED_EDGE('',*,*,#454,.F.);
#369=EDGE_CURVE('',#455,#456,#517,.T.);
#370=EDGE_CURVE('',#457,#455,#55,.T.);
#371=EDGE_CURVE('',#457,#458,#518,.T.);
#372=EDGE_CURVE('',#458,#456,#56,.T.);
#373=EDGE_CURVE('',#459,#460,#519,.T.);
#374=EDGE_CURVE('',#461,#459,#57,.T.);
#375=EDGE_CURVE('',#461,#462,#520,.T.);
#376=EDGE_CURVE('',#462,#460,#58,.T.);
#377=EDGE_CURVE('',#463,#463,#14,.T.);
#378=EDGE_CURVE('',#464,#464,#15,.T.);
#379=EDGE_CURVE('',#465,#466,#59,.T.);
#380=EDGE_CURVE('',#465,#467,#60,.T.);
#381=EDGE_CURVE('',#467,#468,#61,.T.);
#382=EDGE_CURVE('',#466,#468,#62,.T.);
#383=EDGE_CURVE('',#469,#470,#63,.T.);
#384=EDGE_CURVE('',#469,#471,#64,.T.);
#385=EDGE_CURVE('',#471,#472,#65,.T.);
#386=EDGE_CURVE('',#470,#472,#66,.T.);
#387=EDGE_CURVE('',#473,#474,#67,.T.);
#388=EDGE_CURVE('',#473,#475,#68,.T.);
#389=EDGE_CURVE('',#475,#476,#69,.T.);
#390=EDGE_CURVE('',#474,#476,#70,.T.);
#391=EDGE_CURVE('',#477,#478,#71,.T.);
#392=EDGE_CURVE('',#477,#479,#72,.T.);
#393=EDGE_CURVE('',#479,#480,#73,.T.);
#394=EDGE_CURVE('',#478,#480,#74,.T.);
#395=EDGE_CURVE('',#481,#482,#75,.T.);
#396=EDGE_CURVE('',#481,#483,#76,.T.);
#397=EDGE_CURVE('',#483,#484,#77,.T.);
#398=EDGE_CURVE('',#482,#484,#78,.T.);
#399=EDGE_CURVE('',#485,#486,#79,.T.);
#400=EDGE_CURVE('',#485,#487,#80,.T.);
#401=EDGE_CURVE('',#487,#488,#81,.T.);
#402=EDGE_CURVE('',#486,#488,#82,.T.);
#403=EDGE_CURVE('',#489,#489,#16,.T.);
#404=EDGE_CURVE('',#490,#491,#83,.T.);
#405=EDGE_CURVE('',#490,#492,#84,.T.);
#406=EDGE_CURVE('',#492,#493,#85,.T.);
#407=EDGE_CURVE('',#491,#493,#86,.T.);
#408=EDGE_CURVE('',#494,#495,#87,.T.);
#409=EDGE_CURVE('',#494,#496,#88,.T.);
#410=EDGE_CURVE('',#496,#497,#89,.T.);
#411=EDGE_CURVE('',#495,#497,#90,.T.);
#412=EDGE_CURVE('',#498,#499,#91,.T.);
#413=EDGE_CURVE('',#499,#500,#92,.T.);
#414=EDGE_CURVE('',#501,#500,#93,.T.);
#415=EDGE_CURVE('',#498,#501,#94,.T.);
#416=EDGE_CURVE('',#502,#503,#95,.T.);
#417=EDGE_CURVE('',#502,#504,#96,.T.);
#418=EDGE_CURVE('',#504,#505,#97,.T.);
#419=EDGE_CURVE('',#503,#505,#98,.T.);
#420=EDGE_CURVE('',#506,#507,#99,.T.);
#421=EDGE_CURVE('',#506,#508,#100,.T.);
#422=EDGE_CURVE('',#508,#509,#101,.T.);
#423=EDGE_CURVE('',#507,#509,#102,.T.);
#424=EDGE_CURVE('',#510,#510,#17,.T.);
#425=EDGE_CURVE('',#511,#512,#103,.T.);
#426=EDGE_CURVE('',#511,#513,#104,.T.);
#427=EDGE_CURVE('',#513,#514,#105,.T.);
#428=EDGE_CURVE('',#512,#514,#106,.T.);
#429=EDGE_CURVE('',#465,#498,#107,.T.);
#430=EDGE_CURVE('',#466,#499,#108,.T.);
#431=EDGE_CURVE('',#467,#501,#109,.T.);
#432=EDGE_CURVE('',#468,#500,#110,.T.);
#433=EDGE_CURVE('',#502,#469,#111,.T.);
#434=EDGE_CURVE('',#503,#471,#112,.T.);
#435=EDGE_CURVE('',#504,#470,#113,.T.);
#436=EDGE_CURVE('',#505,#472,#114,.T.);
#437=EDGE_CURVE('',#494,#473,#115,.T.);
#438=EDGE_CURVE('',#495,#475,#116,.T.);
#439=EDGE_CURVE('',#496,#474,#117,.T.);
#440=EDGE_CURVE('',#497,#476,#118,.T.);
#441=EDGE_CURVE('',#506,#477,#119,.T.);
#442=EDGE_CURVE('',#507,#479,#120,.T.);
#443=EDGE_CURVE('',#508,#478,#121,.T.);
#444=EDGE_CURVE('',#509,#480,#122,.T.);
#445=EDGE_CURVE('',#490,#481,#123,.T.);
#446=EDGE_CURVE('',#491,#483,#124,.T.);
#447=EDGE_CURVE('',#492,#482,#125,.T.);
#448=EDGE_CURVE('',#493,#484,#126,.T.);
#449=EDGE_CURVE('',#511,#485,#127,.T.);
#450=EDGE_CURVE('',#512,#487,#128,.T.);
#451=EDGE_CURVE('',#513,#486,#129,.T.);
#452=EDGE_CURVE('',#514,#488,#130,.T.);
#453=EDGE_CURVE('',#515,#515,#18,.T.);
#454=EDGE_CURVE('',#516,#516,#19,.T.);
#455=VERTEX_POINT('',#978);
#456=VERTEX_POINT('',#979);
#457=VERTEX_POINT('',#981);
#458=VERTEX_POINT('',#993);
#459=VERTEX_POINT('',#1085);
#460=VERTEX_POINT('',#1086);
#461=VERTEX_POINT('',#1088);
#462=VERTEX_POINT('',#1100);
#463=VERTEX_POINT('',#1105);
#464=VERTEX_POINT('',#1107);
#465=VERTEX_POINT('',#1109);
#466=VERTEX_POINT('',#1110);
#467=VERTEX_POINT('',#1112);
#468=VERTEX_POINT('',#1114);
#469=VERTEX_POINT('',#1117);
#470=VERTEX_POINT('',#1118);
#471=VERTEX_POINT('',#1120);
#472=VERTEX_POINT('',#1122);
#473=VERTEX_POINT('',#1125);
#474=VERTEX_POINT('',#1126);
#475=VERTEX_POINT('',#1128);
#476=VERTEX_POINT('',#1130);
#477=VERTEX_POINT('',#1133);
#478=VERTEX_POINT('',#1134);
#479=VERTEX_POINT('',#1136);
#480=VERTEX_POINT('',#1138);
#481=VERTEX_POINT('',#1141);
#482=VERTEX_POINT('',#1142);
#483=VERTEX_POINT('',#1144);
#484=VERTEX_POINT('',#1146);
#485=VERTEX_POINT('',#1149);
#486=VERTEX_POINT('',#1150);
#487=VERTEX_POINT('',#1152);
#488=VERTEX_POINT('',#1154);
#489=VERTEX_POINT('',#1158);
#490=VERTEX_POINT('',#1160);
#491=VERTEX_POINT('',#1161);
#492=VERTEX_POINT('',#1163);
#493=VERTEX_POINT('',#1165);
#494=VERTEX_POINT('',#1168);
#495=VERTEX_POINT('',#1169);
#496=VERTEX_POINT('',#1171);
#497=VERTEX_POINT('',#1173);
#498=VERTEX_POINT('',#1176);
#499=VERTEX_POINT('',#1177);
#500=VERTEX_POINT('',#1179);
#501=VERTEX_POINT('',#1181);
#502=VERTEX_POINT('',#1184);
#503=VERTEX_POINT('',#1185);
#504=VERTEX_POINT('',#1187);
#505=VERTEX_POINT('',#1189);
#506=VERTEX_POINT('',#1192);
#507=VERTEX_POINT('',#1193);
#508=VERTEX_POINT('',#1195);
#509=VERTEX_POINT('',#1197);
#510=VERTEX_POINT('',#1200);
#511=VERTEX_POINT('',#1202);
#512=VERTEX_POINT('',#1203);
#513=VERTEX_POINT('',#1205);
#514=VERTEX_POINT('',#1207);
#515=VERTEX_POINT('',#1262);
#516=VERTEX_POINT('',#1264);
#517=B_SPLINE_CURVE_WITH_KNOTS('',3,(#967,#968,#969,#970,#971,#972,#973,
#974,#975,#976,#977),.UNSPECIFIED.,.F.,.F.,(4,1,1,1,1,1,1,1,4),(0.,0.104792060231734,
0.275278520537465,0.454270778511796,0.619245075292511,0.781557695028156,
0.951840801669434,0.980051836512814,1.),.UNSPECIFIED.);
#518=B_SPLINE_CURVE_WITH_KNOTS('',3,(#982,#983,#984,#985,#986,#987,#988,
#989,#990,#991,#992),.UNSPECIFIED.,.F.,.F.,(4,1,1,1,1,1,1,1,4),(0.,0.104792060231734,
0.275278520537465,0.454270778511796,0.619245075292511,0.781557695028156,
0.951840801669434,0.980051836512814,1.),.UNSPECIFIED.);
#519=B_SPLINE_CURVE_WITH_KNOTS('',3,(#1074,#1075,#1076,#1077,#1078,#1079,
#1080,#1081,#1082,#1083,#1084),.UNSPECIFIED.,.F.,.F.,(4,1,1,1,1,1,1,1,4),
(0.,0.104792060231734,0.275278520537465,0.454270778511796,0.619245075292511,
0.781557695028156,0.951840801669434,0.980051836512814,1.),.UNSPECIFIED.);
#520=B_SPLINE_CURVE_WITH_KNOTS('',3,(#1089,#1090,#1091,#1092,#1093,#1094,
#1095,#1096,#1097,#1098,#1099),.UNSPECIFIED.,.F.,.F.,(4,1,1,1,1,1,1,1,4),
(0.,0.104792060231734,0.275278520537465,0.454270778511796,0.619245075292511,
0.781557695028156,0.951840801669434,0.980051836512814,1.),.UNSPECIFIED.);
#521=EDGE_LOOP('',(#207,#208,#209,#210));
#522=EDGE_LOOP('',(#211,#212,#213,#214));
#523=EDGE_LOOP('',(#215));
#524=EDGE_LOOP('',(#216));
#525=EDGE_LOOP('',(#217,#218,#219,#220));
#526=EDGE_LOOP('',(#221,#222,#223,#224));
#527=EDGE_LOOP('',(#225,#226,#227,#228));
#528=EDGE_LOOP('',(#229,#230,#231,#232));
#529=EDGE_LOOP('',(#233,#234,#235,#236));
#530=EDGE_LOOP('',(#237,#238,#239,#240));
#531=EDGE_LOOP('',(#241));
#532=EDGE_LOOP('',(#242,#243,#244,#245));
#533=EDGE_LOOP('',(#246,#247,#248,#249));
#534=EDGE_LOOP('',(#250,#251,#252,#253));
#535=EDGE_LOOP('',(#254,#255,#256,#257));
#536=EDGE_LOOP('',(#258,#259,#260,#261));
#537=EDGE_LOOP('',(#262));
#538=EDGE_LOOP('',(#263,#264,#265,#266));
#539=EDGE_LOOP('',(#267,#268,#269,#270));
#540=EDGE_LOOP('',(#271,#272,#273,#274));
#541=EDGE_LOOP('',(#275,#276,#277,#278));
#542=EDGE_LOOP('',(#279,#280,#281,#282));
#543=EDGE_LOOP('',(#283,#284,#285,#286));
#544=EDGE_LOOP('',(#287,#288,#289,#290));
#545=EDGE_LOOP('',(#291,#292,#293,#294));
#546=EDGE_LOOP('',(#295,#296,#297,#298));
#547=EDGE_LOOP('',(#299,#300,#301,#302));
#548=EDGE_LOOP('',(#303,#304,#305,#306));
#549=EDGE_LOOP('',(#307,#308,#309,#310));
#550=EDGE_LOOP('',(#311,#312,#313,#314));
#551=EDGE_LOOP('',(#315,#316,#317,#318));
#552=EDGE_LOOP('',(#319,#320,#321,#322));
#553=EDGE_LOOP('',(#323,#324,#325,#326));
#554=EDGE_LOOP('',(#327,#328,#329,#330));
#555=EDGE_LOOP('',(#331,#332,#333,#334));
#556=EDGE_LOOP('',(#335,#336,#337,#338));
#557=EDGE_LOOP('',(#339,#340,#341,#342));
#558=EDGE_LOOP('',(#343,#344,#345,#346));
#559=EDGE_LOOP('',(#347));
#560=EDGE_LOOP('',(#348));
#561=EDGE_LOOP('',(#349,#350,#351,#352));
#562=EDGE_LOOP('',(#353,#354,#355,#356));
#563=EDGE_LOOP('',(#357,#358,#359,#360));
#564=EDGE_LOOP('',(#361,#362,#363,#364));
#565=EDGE_LOOP('',(#365));
#566=EDGE_LOOP('',(#366));
#567=EDGE_LOOP('',(#367));
#568=EDGE_LOOP('',(#368));
#569=FACE_BOUND('',#521,.T.);
#570=FACE_BOUND('',#522,.T.);
#571=FACE_BOUND('',#523,.T.);
#572=FACE_BOUND('',#524,.T.);
#573=FACE_BOUND('',#525,.T.);
#574=FACE_BOUND('',#526,.T.);
#575=FACE_BOUND('',#527,.T.);
#576=FACE_BOUND('',#528,.T.);
#577=FACE_BOUND('',#529,.T.);
#578=FACE_BOUND('',#530,.T.);
#579=FACE_BOUND('',#531,.T.);
#580=FACE_BOUND('',#532,.T.);
#581=FACE_BOUND('',#533,.T.);
#582=FACE_BOUND('',#534,.T.);
#583=FACE_BOUND('',#535,.T.);
#584=FACE_BOUND('',#536,.T.);
#585=FACE_BOUND('',#537,.T.);
#586=FACE_BOUND('',#538,.T.);
#587=FACE_BOUND('',#539,.T.);
#588=FACE_BOUND('',#540,.T.);
#589=FACE_BOUND('',#541,.T.);
#590=FACE_BOUND('',#542,.T.);
#591=FACE_BOUND('',#543,.T.);
#592=FACE_BOUND('',#544,.T.);
#593=FACE_BOUND('',#545,.T.);
#594=FACE_BOUND('',#546,.T.);
#595=FACE_BOUND('',#547,.T.);
#596=FACE_BOUND('',#548,.T.);
#597=FACE_BOUND('',#549,.T.);
#598=FACE_BOUND('',#550,.T.);
#599=FACE_BOUND('',#551,.T.);
#600=FACE_BOUND('',#552,.T.);
#601=FACE_BOUND('',#553,.T.);
#602=FACE_BOUND('',#554,.T.);
#603=FACE_BOUND('',#555,.T.);
#604=FACE_BOUND('',#556,.T.);
#605=FACE_BOUND('',#557,.T.);
#606=FACE_BOUND('',#558,.T.);
#607=FACE_BOUND('',#559,.T.);
#608=FACE_BOUND('',#560,.T.);
#609=FACE_BOUND('',#561,.T.);
#610=FACE_BOUND('',#562,.T.);
#611=FACE_BOUND('',#563,.T.);
#612=FACE_BOUND('',#564,.T.);
#613=FACE_BOUND('',#565,.T.);
#614=FACE_BOUND('',#566,.T.);
#615=FACE_BOUND('',#567,.T.);
#616=FACE_BOUND('',#568,.T.);
#617=B_SPLINE_SURFACE_WITH_KNOTS('',3,1,((#889,#890),(#891,#892),(#893,
#894),(#895,#896),(#897,#898),(#899,#900),(#901,#902),(#903,#904),(#905,
#906),(#907,#908),(#909,#910),(#911,#912),(#913,#914),(#915,#916),(#917,
#918),(#919,#920),(#921,#922),(#923,#924),(#925,#926),(#927,#928),(#929,
#930),(#931,#932),(#933,#934),(#935,#936),(#937,#938),(#939,#940),(#941,
#942),(#943,#944),(#945,#946),(#947,#948),(#949,#950),(#951,#952),(#953,
#954),(#955,#956),(#957,#958),(#959,#960),(#961,#962),(#963,#964),(#965,
#966)),.SURF_OF_LINEAR_EXTRUSION.,.F.,.F.,.F.,(4,1,1,1,1,1,1,1,1,1,1,1,
1,1,1,1,1,1,1,1,1,1,1,1,1,1,1,1,1,1,1,1,1,1,1,1,4),(2,2),(0.,0.03125,0.0625,
0.09375,0.125,0.15625,0.1875,0.21875,0.25,0.28125,0.3125,0.34375,0.375,
0.40625,0.4375,0.453125,0.46875,0.5,0.53125,0.5625,0.59375,0.625,0.65625,
0.6875,0.71875,0.75,0.78125,0.8125,0.84375,0.875,0.90625,0.921875,0.9375,
0.953125,0.96875,0.984375,1.),(0.,1.),.UNSPECIFIED.);
#618=B_SPLINE_SURFACE_WITH_KNOTS('',3,1,((#996,#997),(#998,#999),(#1000,
#1001),(#1002,#1003),(#1004,#1005),(#1006,#1007),(#1008,#1009),(#1010,#1011),
(#1012,#1013),(#1014,#1015),(#1016,#1017),(#1018,#1019),(#1020,#1021),(#1022,
#1023),(#1024,#1025),(#1026,#1027),(#1028,#1029),(#1030,#1031),(#1032,#1033),
(#1034,#1035),(#1036,#1037),(#1038,#1039),(#1040,#1041),(#1042,#1043),(#1044,
#1045),(#1046,#1047),(#1048,#1049),(#1050,#1051),(#1052,#1053),(#1054,#1055),
(#1056,#1057),(#1058,#1059),(#1060,#1061),(#1062,#1063),(#1064,#1065),(#1066,
#1067),(#1068,#1069),(#1070,#1071),(#1072,#1073)),
 .SURF_OF_LINEAR_EXTRUSION.,.F.,.F.,.F.,(4,1,1,1,1,1,1,1,1,1,1,1,1,1,1,
1,1,1,1,1,1,1,1,1,1,1,1,1,1,1,1,1,1,1,1,1,4),(2,2),(0.,0.03125,0.0625,0.09375,
0.125,0.15625,0.1875,0.21875,0.25,0.28125,0.3125,0.34375,0.375,0.40625,
0.4375,0.453125,0.46875,0.5,0.53125,0.5625,0.59375,0.625,0.65625,0.6875,
0.71875,0.75,0.78125,0.8125,0.84375,0.875,0.90625,0.921875,0.9375,0.953125,
0.96875,0.984375,1.),(0.,1.),.UNSPECIFIED.);
#619=ADVANCED_FACE('',(#569),#617,.T.);
#620=ADVANCED_FACE('',(#570),#618,.T.);
#621=ADVANCED_FACE('',(#571,#572,#573,#574,#575,#576,#577,#578),#20,.T.);
#622=ADVANCED_FACE('',(#579,#580,#581,#582,#583,#584,#585,#586),#21,.F.);
#623=ADVANCED_FACE('',(#587),#22,.T.);
#624=ADVANCED_FACE('',(#588),#23,.F.);
#625=ADVANCED_FACE('',(#589),#24,.F.);
#626=ADVANCED_FACE('',(#590),#25,.T.);
#627=ADVANCED_FACE('',(#591),#26,.T.);
#628=ADVANCED_FACE('',(#592),#27,.F.);
#629=ADVANCED_FACE('',(#593),#28,.F.);
#630=ADVANCED_FACE('',(#594),#29,.T.);
#631=ADVANCED_FACE('',(#595),#30,.T.);
#632=ADVANCED_FACE('',(#596),#31,.F.);
#633=ADVANCED_FACE('',(#597),#32,.F.);
#634=ADVANCED_FACE('',(#598),#33,.T.);
#635=ADVANCED_FACE('',(#599),#34,.T.);
#636=ADVANCED_FACE('',(#600),#35,.F.);
#637=ADVANCED_FACE('',(#601),#36,.F.);
#638=ADVANCED_FACE('',(#602),#37,.T.);
#639=ADVANCED_FACE('',(#603),#38,.T.);
#640=ADVANCED_FACE('',(#604),#39,.F.);
#641=ADVANCED_FACE('',(#605),#40,.F.);
#642=ADVANCED_FACE('',(#606),#41,.T.);
#643=ADVANCED_FACE('',(#607,#608),#11,.F.);
#644=ADVANCED_FACE('',(#609),#42,.T.);
#645=ADVANCED_FACE('',(#610),#43,.F.);
#646=ADVANCED_FACE('',(#611),#44,.F.);
#647=ADVANCED_FACE('',(#612),#45,.T.);
#648=ADVANCED_FACE('',(#613,#614),#12,.F.);
#649=ADVANCED_FACE('',(#615,#616),#13,.T.);
#650=OPEN_SHELL('',(#619));
#651=OPEN_SHELL('',(#620));
#652=OPEN_SHELL('',(#649));
#653=STYLED_ITEM('',(#657),#684);
#654=STYLED_ITEM('',(#658),#685);
#655=STYLED_ITEM('',(#659),#47);
#656=STYLED_ITEM('',(#660),#686);
#657=PRESENTATION_STYLE_ASSIGNMENT((#661));
#658=PRESENTATION_STYLE_ASSIGNMENT((#662));
#659=PRESENTATION_STYLE_ASSIGNMENT((#663));
#660=PRESENTATION_STYLE_ASSIGNMENT((#664));
#661=SURFACE_STYLE_USAGE(.BOTH.,#665);
#662=SURFACE_STYLE_USAGE(.BOTH.,#666);
#663=SURFACE_STYLE_USAGE(.BOTH.,#667);
#664=SURFACE_STYLE_USAGE(.BOTH.,#668);
#665=SURFACE_SIDE_STYLE('',(#669));
#666=SURFACE_SIDE_STYLE('',(#670));
#667=SURFACE_SIDE_STYLE('',(#671));
#668=SURFACE_SIDE_STYLE('',(#672));
#669=SURFACE_STYLE_FILL_AREA(#673);
#670=SURFACE_STYLE_FILL_AREA(#674);
#671=SURFACE_STYLE_FILL_AREA(#675);
#672=SURFACE_STYLE_FILL_AREA(#676);
#673=FILL_AREA_STYLE('',(#677));
#674=FILL_AREA_STYLE('',(#678));
#675=FILL_AREA_STYLE('',(#679));
#676=FILL_AREA_STYLE('',(#680));
#677=FILL_AREA_STYLE_COLOUR('',#681);
#678=FILL_AREA_STYLE_COLOUR('',#682);
#679=FILL_AREA_STYLE_COLOUR('',#683);
#680=FILL_AREA_STYLE_COLOUR('',#681);
#681=COLOUR_RGB('',0.729411764705882,0.250980392156863,0.105882352941176);
#682=COLOUR_RGB('',0.458823529411765,0.105882352941176,0.);
#683=COLOUR_RGB('',0.6,0.580392156862745,0.529411764705882);
#684=SHELL_BASED_SURFACE_MODEL('Surface 2',(#650));
#685=SHELL_BASED_SURFACE_MODEL('Surface 1',(#651));
#686=SHELL_BASED_SURFACE_MODEL('Surface 3',(#652));
#687=SHAPE_DEFINITION_REPRESENTATION(#1289,#691);
#688=SHAPE_DEFINITION_REPRESENTATION(#1290,#692);
#689=SHAPE_DEFINITION_REPRESENTATION(#1291,#693);
#690=SHAPE_DEFINITION_REPRESENTATION(#1292,#694);
#691=SHAPE_REPRESENTATION('Surface 2',(#695),#1269);
#692=SHAPE_REPRESENTATION('Surface 1',(#696),#1270);
#693=SHAPE_REPRESENTATION('Part 2',(#697),#1271);
#694=SHAPE_REPRESENTATION('Surface 3',(#730),#1272);
#695=AXIS2_PLACEMENT_3D('',#888,#734,#735);
#696=AXIS2_PLACEMENT_3D('',#995,#738,#739);
#697=AXIS2_PLACEMENT_3D('',#1102,#742,#743);
#698=AXIS2_PLACEMENT_3D('',#1103,#744,#745);
#699=AXIS2_PLACEMENT_3D('',#1104,#746,#747);
#700=AXIS2_PLACEMENT_3D('',#1106,#748,#749);
#701=AXIS2_PLACEMENT_3D('',#1156,#774,#775);
#702=AXIS2_PLACEMENT_3D('',#1157,#776,#777);
#703=AXIS2_PLACEMENT_3D('',#1199,#798,#799);
#704=AXIS2_PLACEMENT_3D('',#1209,#804,#805);
#705=AXIS2_PLACEMENT_3D('',#1212,#808,#809);
#706=AXIS2_PLACEMENT_3D('',#1214,#811,#812);
#707=AXIS2_PLACEMENT_3D('',#1216,#814,#815);
#708=AXIS2_PLACEMENT_3D('',#1217,#816,#817);
#709=AXIS2_PLACEMENT_3D('',#1220,#820,#821);
#710=AXIS2_PLACEMENT_3D('',#1222,#823,#824);
#711=AXIS2_PLACEMENT_3D('',#1224,#826,#827);
#712=AXIS2_PLACEMENT_3D('',#1225,#828,#829);
#713=AXIS2_PLACEMENT_3D('',#1228,#832,#833);
#714=AXIS2_PLACEMENT_3D('',#1230,#835,#836);
#715=AXIS2_PLACEMENT_3D('',#1232,#838,#839);
#716=AXIS2_PLACEMENT_3D('',#1233,#840,#841);
#717=AXIS2_PLACEMENT_3D('',#1236,#844,#845);
#718=AXIS2_PLACEMENT_3D('',#1238,#847,#848);
#719=AXIS2_PLACEMENT_3D('',#1240,#850,#851);
#720=AXIS2_PLACEMENT_3D('',#1241,#852,#853);
#721=AXIS2_PLACEMENT_3D('',#1244,#856,#857);
#722=AXIS2_PLACEMENT_3D('',#1246,#859,#860);
#723=AXIS2_PLACEMENT_3D('',#1248,#862,#863);
#724=AXIS2_PLACEMENT_3D('',#1249,#864,#865);
#725=AXIS2_PLACEMENT_3D('',#1250,#866,#867);
#726=AXIS2_PLACEMENT_3D('',#1253,#870,#871);
#727=AXIS2_PLACEMENT_3D('',#1255,#873,#874);
#728=AXIS2_PLACEMENT_3D('',#1257,#876,#877);
#729=AXIS2_PLACEMENT_3D('',#1258,#878,#879);
#730=AXIS2_PLACEMENT_3D('',#1259,#880,#881);
#731=AXIS2_PLACEMENT_3D('',#1260,#882,#883);
#732=AXIS2_PLACEMENT_3D('',#1261,#884,#885);
#733=AXIS2_PLACEMENT_3D('',#1263,#886,#887);
#734=DIRECTION('',(0.,0.,1.));
#735=DIRECTION('',(1.,0.,0.));
#736=DIRECTION('',(0.,0.,1.));
#737=DIRECTION('',(0.,0.,1.));
#738=DIRECTION('',(0.,0.,1.));
#739=DIRECTION('',(1.,0.,0.));
#740=DIRECTION('',(0.,0.,1.));
#741=DIRECTION('',(0.,0.,1.));
#742=DIRECTION('',(0.,0.,1.));
#743=DIRECTION('',(1.,0.,0.));
#744=DIRECTION('',(0.,0.,1.));
#745=DIRECTION('',(1.,0.,0.));
#746=DIRECTION('',(0.,0.,1.));
#747=DIRECTION('',(1.,0.,0.));
#748=DIRECTION('',(0.,0.,1.));
#749=DIRECTION('',(1.,0.,0.));
#750=DIRECTION('',(1.,0.,0.));
#751=DIRECTION('',(-1.47636040508664E-16,-1.,0.));
#752=DIRECTION('',(1.,0.,0.));
#753=DIRECTION('',(-1.47636040508664E-16,-1.,0.));
#754=DIRECTION('',(-2.44327250137578E-16,1.,0.));
#755=DIRECTION('',(-1.,-1.22163625068789E-16,0.));
#756=DIRECTION('',(-1.22163625068789E-16,1.,0.));
#757=DIRECTION('',(-1.,0.,0.));
#758=DIRECTION('',(0.,-1.,0.));
#759=DIRECTION('',(1.,-1.83245437603184E-16,0.));
#760=DIRECTION('',(-1.83245437603184E-16,-1.,0.));
#761=DIRECTION('',(1.,0.,0.));
#762=DIRECTION('',(1.,0.,0.));
#763=DIRECTION('',(1.83245437603184E-16,1.,0.));
#764=DIRECTION('',(1.,0.,0.));
#765=DIRECTION('',(2.44327250137578E-16,1.,0.));
#766=DIRECTION('',(0.,-1.,0.));
#767=DIRECTION('',(1.,-1.83245437603184E-16,0.));
#768=DIRECTION('',(0.,-1.,0.));
#769=DIRECTION('',(1.,0.,0.));
#770=DIRECTION('',(0.,-1.,0.));
#771=DIRECTION('',(1.,0.,0.));
#772=DIRECTION('',(0.,-1.,0.));
#773=DIRECTION('',(1.,0.,0.));
#774=DIRECTION('',(0.,0.,1.));
#775=DIRECTION('',(1.,0.,0.));
#776=DIRECTION('',(0.,0.,1.));
#777=DIRECTION('',(1.,0.,0.));
#778=DIRECTION('',(1.,-1.83245437603184E-16,0.));
#779=DIRECTION('',(0.,-1.,0.));
#780=DIRECTION('',(1.,0.,0.));
#781=DIRECTION('',(0.,-1.,0.));
#782=DIRECTION('',(1.,-1.83245437603184E-16,0.));
#783=DIRECTION('',(0.,-1.,0.));
#784=DIRECTION('',(1.,0.,0.));
#785=DIRECTION('',(-1.83245437603184E-16,-1.,0.));
#786=DIRECTION('',(1.,0.,0.));
#787=DIRECTION('',(-1.47636040508664E-16,-1.,0.));
#788=DIRECTION('',(1.,0.,0.));
#789=DIRECTION('',(-1.47636040508664E-16,-1.,0.));
#790=DIRECTION('',(-1.,-1.22163625068789E-16,0.));
#791=DIRECTION('',(-2.44327250137578E-16,1.,0.));
#792=DIRECTION('',(-1.,0.,0.));
#793=DIRECTION('',(-1.22163625068789E-16,1.,0.));
#794=DIRECTION('',(1.83245437603184E-16,1.,0.));
#795=DIRECTION('',(1.,0.,0.));
#796=DIRECTION('',(2.44327250137578E-16,1.,0.));
#797=DIRECTION('',(1.,0.,0.));
#798=DIRECTION('',(0.,0.,1.));
#799=DIRECTION('',(1.,0.,0.));
#800=DIRECTION('',(1.,0.,0.));
#801=DIRECTION('',(0.,-1.,0.));
#802=DIRECTION('',(1.,0.,0.));
#803=DIRECTION('',(0.,-1.,0.));
#804=DIRECTION('',(0.,1.,0.));
#805=DIRECTION('',(0.,0.,1.));
#806=DIRECTION('',(0.,0.,-1.));
#807=DIRECTION('',(0.,0.,-1.));
#808=DIRECTION('',(1.,-1.47636040508664E-16,0.));
#809=DIRECTION('',(1.47636040508664E-16,1.,0.));
#810=DIRECTION('',(0.,0.,-1.));
#811=DIRECTION('',(0.,1.,0.));
#812=DIRECTION('',(0.,0.,1.));
#813=DIRECTION('',(0.,0.,-1.));
#814=DIRECTION('',(1.,-1.47636040508664E-16,0.));
#815=DIRECTION('',(1.47636040508664E-16,1.,0.));
#816=DIRECTION('',(-1.22163625068789E-16,1.,0.));
#817=DIRECTION('',(-1.,-1.22163625068789E-16,0.));
#818=DIRECTION('',(0.,0.,1.));
#819=DIRECTION('',(0.,0.,1.));
#820=DIRECTION('',(1.,2.44327250137578E-16,0.));
#821=DIRECTION('',(-2.44327250137578E-16,1.,0.));
#822=DIRECTION('',(0.,0.,1.));
#823=DIRECTION('',(0.,1.,0.));
#824=DIRECTION('',(0.,0.,1.));
#825=DIRECTION('',(0.,0.,1.));
#826=DIRECTION('',(1.,1.22163625068789E-16,0.));
#827=DIRECTION('',(-1.22163625068789E-16,1.,0.));
#828=DIRECTION('',(-1.83245437603184E-16,-1.,0.));
#829=DIRECTION('',(1.,-1.83245437603184E-16,0.));
#830=DIRECTION('',(0.,0.,1.));
#831=DIRECTION('',(0.,0.,1.));
#832=DIRECTION('',(-1.,0.,0.));
#833=DIRECTION('',(0.,0.,1.));
#834=DIRECTION('',(0.,0.,1.));
#835=DIRECTION('',(0.,-1.,0.));
#836=DIRECTION('',(0.,0.,-1.));
#837=DIRECTION('',(0.,0.,1.));
#838=DIRECTION('',(-1.,1.83245437603184E-16,0.));
#839=DIRECTION('',(-1.83245437603184E-16,-1.,0.));
#840=DIRECTION('',(1.,-1.83245437603184E-16,0.));
#841=DIRECTION('',(1.83245437603184E-16,1.,0.));
#842=DIRECTION('',(0.,0.,1.));
#843=DIRECTION('',(0.,0.,1.));
#844=DIRECTION('',(0.,-1.,0.));
#845=DIRECTION('',(0.,0.,-1.));
#846=DIRECTION('',(0.,0.,1.));
#847=DIRECTION('',(1.,-2.44327250137578E-16,0.));
#848=DIRECTION('',(2.44327250137578E-16,1.,0.));
#849=DIRECTION('',(0.,0.,1.));
#850=DIRECTION('',(0.,-1.,0.));
#851=DIRECTION('',(0.,0.,-1.));
#852=DIRECTION('',(-1.83245437603184E-16,-1.,0.));
#853=DIRECTION('',(1.,-1.83245437603184E-16,0.));
#854=DIRECTION('',(0.,0.,1.));
#855=DIRECTION('',(0.,0.,1.));
#856=DIRECTION('',(-1.,0.,0.));
#857=DIRECTION('',(0.,0.,1.));
#858=DIRECTION('',(0.,0.,1.));
#859=DIRECTION('',(0.,-1.,0.));
#860=DIRECTION('',(0.,0.,-1.));
#861=DIRECTION('',(0.,0.,1.));
#862=DIRECTION('',(-1.,0.,0.));
#863=DIRECTION('',(0.,0.,1.));
#864=DIRECTION('',(0.,0.,1.));
#865=DIRECTION('',(1.,0.,0.));
#866=DIRECTION('',(0.,-1.,0.));
#867=DIRECTION('',(0.,0.,-1.));
#868=DIRECTION('',(0.,0.,1.));
#869=DIRECTION('',(0.,0.,1.));
#870=DIRECTION('',(-1.,0.,0.));
#871=DIRECTION('',(0.,0.,1.));
#872=DIRECTION('',(0.,0.,1.));
#873=DIRECTION('',(0.,-1.,0.));
#874=DIRECTION('',(0.,0.,-1.));
#875=DIRECTION('',(0.,0.,1.));
#876=DIRECTION('',(-1.,0.,0.));
#877=DIRECTION('',(0.,0.,1.));
#878=DIRECTION('',(0.,0.,1.));
#879=DIRECTION('',(1.,0.,0.));
#880=DIRECTION('',(0.,0.,1.));
#881=DIRECTION('',(1.,0.,0.));
#882=DIRECTION('',(0.,0.,1.));
#883=DIRECTION('',(1.,0.,0.));
#884=DIRECTION('',(0.,0.,1.));
#885=DIRECTION('',(1.,0.,0.));
#886=DIRECTION('',(0.,0.,1.));
#887=DIRECTION('',(1.,0.,0.));
#888=CARTESIAN_POINT('',(0.,0.,0.));
#889=CARTESIAN_POINT('',(0.0351024270057679,-0.0215665865689516,0.017));
#890=CARTESIAN_POINT('',(0.0351024270057679,-0.0215665865689516,0.018));
#891=CARTESIAN_POINT('',(0.0348561283257041,-0.0210410672203675,0.017));
#892=CARTESIAN_POINT('',(0.0348561283257041,-0.0210410672203675,0.018));
#893=CARTESIAN_POINT('',(0.0343616014699696,-0.0199875104723084,0.017));
#894=CARTESIAN_POINT('',(0.0343616014699696,-0.0199875104723084,0.018));
#895=CARTESIAN_POINT('',(0.0340203470226037,-0.0184414370182437,0.017));
#896=CARTESIAN_POINT('',(0.0340203470226037,-0.0184414370182437,0.018));
#897=CARTESIAN_POINT('',(0.0344466807711497,-0.0169676359029078,0.017));
#898=CARTESIAN_POINT('',(0.0344466807711497,-0.0169676359029078,0.018));
#899=CARTESIAN_POINT('',(0.0361451069471135,-0.0156174358219753,0.017));
#900=CARTESIAN_POINT('',(0.0361451069471135,-0.0156174358219753,0.018));
#901=CARTESIAN_POINT('',(0.0388382149033536,-0.0143664030601263,0.017));
#902=CARTESIAN_POINT('',(0.0388382149033536,-0.0143664030601263,0.018));
#903=CARTESIAN_POINT('',(0.0418433920203707,-0.0131508353228814,0.017));
#904=CARTESIAN_POINT('',(0.0418433920203707,-0.0131508353228814,0.018));
#905=CARTESIAN_POINT('',(0.0445702112583141,-0.0119159861927637,0.017));
#906=CARTESIAN_POINT('',(0.0445702112583141,-0.0119159861927637,0.018));
#907=CARTESIAN_POINT('',(0.0464204299808505,-0.0106062642472091,0.017));
#908=CARTESIAN_POINT('',(0.0464204299808505,-0.0106062642472091,0.018));
#909=CARTESIAN_POINT('',(0.0467348823579286,-0.00916050220699951,0.017));
#910=CARTESIAN_POINT('',(0.0467348823579286,-0.00916050220699951,0.018));
#911=CARTESIAN_POINT('',(0.0451152586042212,-0.00754154191751058,0.017));
#912=CARTESIAN_POINT('',(0.0451152586042212,-0.00754154191751058,0.018));
#913=CARTESIAN_POINT('',(0.0424071600599307,-0.00582676287433158,0.017));
#914=CARTESIAN_POINT('',(0.0424071600599307,-0.00582676287433158,0.018));
#915=CARTESIAN_POINT('',(0.03931302312761,-0.00408035691935774,0.017));
#916=CARTESIAN_POINT('',(0.03931302312761,-0.00408035691935774,0.018));
#917=CARTESIAN_POINT('',(0.0365731412799628,-0.00237002046401938,0.017));
#918=CARTESIAN_POINT('',(0.0365731412799628,-0.00237002046401938,0.018));
#919=CARTESIAN_POINT('',(0.0351951440856101,-0.001030519490087,0.017));
#920=CARTESIAN_POINT('',(0.0351951440856101,-0.001030519490087,0.018));
#921=CARTESIAN_POINT('',(0.034999502153046,-4.37282118678959E-5,0.017));
#922=CARTESIAN_POINT('',(0.034999502153046,-4.37282118678959E-5,0.018));
#923=CARTESIAN_POINT('',(0.0355406174229289,0.000874775072737664,0.017));
#924=CARTESIAN_POINT('',(0.0355406174229289,0.000874775072737664,0.018));
#925=CARTESIAN_POINT('',(0.0373523958704198,0.00190160349436217,0.017));
#926=CARTESIAN_POINT('',(0.0373523958704198,0.00190160349436217,0.018));
#927=CARTESIAN_POINT('',(0.0404732592317822,0.00296632858051436,0.017));
#928=CARTESIAN_POINT('',(0.0404732592317822,0.00296632858051436,0.018));
#929=CARTESIAN_POINT('',(0.0436742509407742,0.00388939246354042,0.017));
#930=CARTESIAN_POINT('',(0.0436742509407742,0.00388939246354042,0.018));
#931=CARTESIAN_POINT('',(0.0461090648024177,0.00469765530295979,0.017));
#932=CARTESIAN_POINT('',(0.0461090648024177,0.00469765530295979,0.018));
#933=CARTESIAN_POINT('',(0.046846931019571,0.00541457214504208,0.017));
#934=CARTESIAN_POINT('',(0.046846931019571,0.00541457214504208,0.018));
#935=CARTESIAN_POINT('',(0.0452855715398979,0.00607659830302808,0.017));
#936=CARTESIAN_POINT('',(0.0452855715398979,0.00607659830302808,0.018));
#937=CARTESIAN_POINT('',(0.0424559075565081,0.00678475947604355,0.017));
#938=CARTESIAN_POINT('',(0.0424559075565081,0.00678475947604355,0.018));
#939=CARTESIAN_POINT('',(0.0392056995987622,0.00763279460005942,0.017));
#940=CARTESIAN_POINT('',(0.0392056995987622,0.00763279460005942,0.018));
#941=CARTESIAN_POINT('',(0.0364326476049569,0.00871659361508165,0.017));
#942=CARTESIAN_POINT('',(0.0364326476049569,0.00871659361508165,0.018));
#943=CARTESIAN_POINT('',(0.0350178545413942,0.0101307292081309,0.017));
#944=CARTESIAN_POINT('',(0.0350178545413942,0.0101307292081309,0.018));
#945=CARTESIAN_POINT('',(0.0358588718534182,0.011972892074134,0.017));
#946=CARTESIAN_POINT('',(0.0358588718534182,0.011972892074134,0.018));
#947=CARTESIAN_POINT('',(0.038190034493228,0.0139573655929708,0.017));
#948=CARTESIAN_POINT('',(0.038190034493228,0.0139573655929708,0.018));
#949=CARTESIAN_POINT('',(0.0412324568016716,0.0157952921852711,0.017));
#950=CARTESIAN_POINT('',(0.0412324568016716,0.0157952921852711,0.018));
#951=CARTESIAN_POINT('',(0.0437146682682507,0.0169649480954358,0.017));
#952=CARTESIAN_POINT('',(0.0437146682682507,0.0169649480954358,0.018));
#953=CARTESIAN_POINT('',(0.0452799336868202,0.0175390470717252,0.017));
#954=CARTESIAN_POINT('',(0.0452799336868202,0.0175390470717252,0.018));
#955=CARTESIAN_POINT('',(0.0461478958107719,0.0177536909364032,0.017));
#956=CARTESIAN_POINT('',(0.0461478958107719,0.0177536909364032,0.018));
#957=CARTESIAN_POINT('',(0.046607763004965,0.0177127275855443,0.017));
#958=CARTESIAN_POINT('',(0.046607763004965,0.0177127275855443,0.018));
#959=CARTESIAN_POINT('',(0.0465819224047895,0.0173941029636157,0.017));
#960=CARTESIAN_POINT('',(0.0465819224047895,0.0173941029636157,0.018));
#961=CARTESIAN_POINT('',(0.0464704035890926,0.0172534348378556,0.017));
#962=CARTESIAN_POINT('',(0.0464704035890926,0.0172534348378556,0.018));
#963=CARTESIAN_POINT('',(0.0464972043106512,0.0174207297665879,0.017));
#964=CARTESIAN_POINT('',(0.0464972043106512,0.0174207297665879,0.018));
#965=CARTESIAN_POINT('',(0.0465076193213463,0.0174967385828495,0.017));
#966=CARTESIAN_POINT('',(0.0465076193213463,0.0174967385828495,0.018));
#967=CARTESIAN_POINT('',(0.0351024270057679,-0.0215665865689516,0.018));
#968=CARTESIAN_POINT('',(0.0342765023300481,-0.019804338401599,0.018));
#969=CARTESIAN_POINT('',(0.0320944928138879,-0.0151394547235474,0.018));
#970=CARTESIAN_POINT('',(0.0568168577526883,-0.0102114670257857,0.018));
#971=CARTESIAN_POINT('',(0.0239082975513402,0.000824685642696841,0.018));
#972=CARTESIAN_POINT('',(0.0572420557539885,0.00556839376836721,0.018));
#973=CARTESIAN_POINT('',(0.0247250630176148,0.008342155466357,0.018));
#974=CARTESIAN_POINT('',(0.047356697059038,0.0191008609805464,0.018));
#975=CARTESIAN_POINT('',(0.046463106814867,0.0171556854203943,0.018));
#976=CARTESIAN_POINT('',(0.046494322659838,0.0173996994600813,0.018));
#977=CARTESIAN_POINT('',(0.0465076193213463,0.0174967385828495,0.018));
#978=CARTESIAN_POINT('',(0.0351024270057679,-0.0215665865689516,0.018));
#979=CARTESIAN_POINT('',(0.0465076193213463,0.0174967385828495,0.018));
#980=CARTESIAN_POINT('',(0.0351024270057679,-0.0215665865689516,0.017));
#981=CARTESIAN_POINT('',(0.0351024270057679,-0.0215665865689516,0.017));
#982=CARTESIAN_POINT('',(0.0351024270057679,-0.0215665865689516,0.017));
#983=CARTESIAN_POINT('',(0.0342765023300481,-0.019804338401599,0.017));
#984=CARTESIAN_POINT('',(0.0320944928138879,-0.0151394547235474,0.017));
#985=CARTESIAN_POINT('',(0.0568168577526883,-0.0102114670257857,0.017));
#986=CARTESIAN_POINT('',(0.0239082975513402,0.000824685642696841,0.017));
#987=CARTESIAN_POINT('',(0.0572420557539885,0.00556839376836721,0.017));
#988=CARTESIAN_POINT('',(0.0247250630176148,0.008342155466357,0.017));
#989=CARTESIAN_POINT('',(0.047356697059038,0.0191008609805464,0.017));
#990=CARTESIAN_POINT('',(0.046463106814867,0.0171556854203943,0.017));
#991=CARTESIAN_POINT('',(0.046494322659838,0.0173996994600813,0.017));
#992=CARTESIAN_POINT('',(0.0465076193213463,0.0174967385828495,0.017));
#993=CARTESIAN_POINT('',(0.0465076193213463,0.0174967385828495,0.017));
#994=CARTESIAN_POINT('',(0.0465076193213463,0.0174967385828495,0.017));
#995=CARTESIAN_POINT('',(0.,0.,0.));
#996=CARTESIAN_POINT('',(0.0351024270057679,-0.0215665865689516,0.017));
#997=CARTESIAN_POINT('',(0.0351024270057679,-0.0215665865689516,0.019));
#998=CARTESIAN_POINT('',(0.0348561283257041,-0.0210410672203675,0.017));
#999=CARTESIAN_POINT('',(0.0348561283257041,-0.0210410672203675,0.019));
#1000=CARTESIAN_POINT('',(0.0343616014699696,-0.0199875104723084,0.017));
#1001=CARTESIAN_POINT('',(0.0343616014699696,-0.0199875104723084,0.019));
#1002=CARTESIAN_POINT('',(0.0340203470226037,-0.0184414370182437,0.017));
#1003=CARTESIAN_POINT('',(0.0340203470226037,-0.0184414370182437,0.019));
#1004=CARTESIAN_POINT('',(0.0344466807711497,-0.0169676359029078,0.017));
#1005=CARTESIAN_POINT('',(0.0344466807711497,-0.0169676359029078,0.019));
#1006=CARTESIAN_POINT('',(0.0361451069471135,-0.0156174358219753,0.017));
#1007=CARTESIAN_POINT('',(0.0361451069471135,-0.0156174358219753,0.019));
#1008=CARTESIAN_POINT('',(0.0388382149033536,-0.0143664030601263,0.017));
#1009=CARTESIAN_POINT('',(0.0388382149033536,-0.0143664030601263,0.019));
#1010=CARTESIAN_POINT('',(0.0418433920203707,-0.0131508353228814,0.017));
#1011=CARTESIAN_POINT('',(0.0418433920203707,-0.0131508353228814,0.019));
#1012=CARTESIAN_POINT('',(0.0445702112583141,-0.0119159861927637,0.017));
#1013=CARTESIAN_POINT('',(0.0445702112583141,-0.0119159861927637,0.019));
#1014=CARTESIAN_POINT('',(0.0464204299808505,-0.0106062642472091,0.017));
#1015=CARTESIAN_POINT('',(0.0464204299808505,-0.0106062642472091,0.019));
#1016=CARTESIAN_POINT('',(0.0467348823579286,-0.00916050220699951,0.017));
#1017=CARTESIAN_POINT('',(0.0467348823579286,-0.00916050220699951,0.019));
#1018=CARTESIAN_POINT('',(0.0451152586042212,-0.00754154191751058,0.017));
#1019=CARTESIAN_POINT('',(0.0451152586042212,-0.00754154191751058,0.019));
#1020=CARTESIAN_POINT('',(0.0424071600599307,-0.00582676287433158,0.017));
#1021=CARTESIAN_POINT('',(0.0424071600599307,-0.00582676287433158,0.019));
#1022=CARTESIAN_POINT('',(0.03931302312761,-0.00408035691935774,0.017));
#1023=CARTESIAN_POINT('',(0.03931302312761,-0.00408035691935774,0.019));
#1024=CARTESIAN_POINT('',(0.0365731412799628,-0.00237002046401938,0.017));
#1025=CARTESIAN_POINT('',(0.0365731412799628,-0.00237002046401938,0.019));
#1026=CARTESIAN_POINT('',(0.0351951440856101,-0.001030519490087,0.017));
#1027=CARTESIAN_POINT('',(0.0351951440856101,-0.001030519490087,0.019));
#1028=CARTESIAN_POINT('',(0.034999502153046,-4.37282118678959E-5,0.017));
#1029=CARTESIAN_POINT('',(0.034999502153046,-4.37282118678959E-5,0.019));
#1030=CARTESIAN_POINT('',(0.0355406174229289,0.000874775072737664,0.017));
#1031=CARTESIAN_POINT('',(0.0355406174229289,0.000874775072737664,0.019));
#1032=CARTESIAN_POINT('',(0.0373523958704198,0.00190160349436217,0.017));
#1033=CARTESIAN_POINT('',(0.0373523958704198,0.00190160349436217,0.019));
#1034=CARTESIAN_POINT('',(0.0404732592317822,0.00296632858051436,0.017));
#1035=CARTESIAN_POINT('',(0.0404732592317822,0.00296632858051436,0.019));
#1036=CARTESIAN_POINT('',(0.0436742509407742,0.00388939246354042,0.017));
#1037=CARTESIAN_POINT('',(0.0436742509407742,0.00388939246354042,0.019));
#1038=CARTESIAN_POINT('',(0.0461090648024177,0.00469765530295979,0.017));
#1039=CARTESIAN_POINT('',(0.0461090648024177,0.00469765530295979,0.019));
#1040=CARTESIAN_POINT('',(0.046846931019571,0.00541457214504208,0.017));
#1041=CARTESIAN_POINT('',(0.046846931019571,0.00541457214504208,0.019));
#1042=CARTESIAN_POINT('',(0.0452855715398979,0.00607659830302808,0.017));
#1043=CARTESIAN_POINT('',(0.0452855715398979,0.00607659830302808,0.019));
#1044=CARTESIAN_POINT('',(0.0424559075565081,0.00678475947604355,0.017));
#1045=CARTESIAN_POINT('',(0.0424559075565081,0.00678475947604355,0.019));
#1046=CARTESIAN_POINT('',(0.0392056995987622,0.00763279460005942,0.017));
#1047=CARTESIAN_POINT('',(0.0392056995987622,0.00763279460005942,0.019));
#1048=CARTESIAN_POINT('',(0.0364326476049569,0.00871659361508165,0.017));
#1049=CARTESIAN_POINT('',(0.0364326476049569,0.00871659361508165,0.019));
#1050=CARTESIAN_POINT('',(0.0350178545413942,0.0101307292081309,0.017));
#1051=CARTESIAN_POINT('',(0.0350178545413942,0.0101307292081309,0.019));
#1052=CARTESIAN_POINT('',(0.0358588718534182,0.011972892074134,0.017));
#1053=CARTESIAN_POINT('',(0.0358588718534182,0.011972892074134,0.019));
#1054=CARTESIAN_POINT('',(0.038190034493228,0.0139573655929708,0.017));
#1055=CARTESIAN_POINT('',(0.038190034493228,0.0139573655929708,0.019));
#1056=CARTESIAN_POINT('',(0.0412324568016716,0.0157952921852711,0.017));
#1057=CARTESIAN_POINT('',(0.0412324568016716,0.0157952921852711,0.019));
#1058=CARTESIAN_POINT('',(0.0437146682682507,0.0169649480954358,0.017));
#1059=CARTESIAN_POINT('',(0.0437146682682507,0.0169649480954358,0.019));
#1060=CARTESIAN_POINT('',(0.0452799336868202,0.0175390470717252,0.017));
#1061=CARTESIAN_POINT('',(0.0452799336868202,0.0175390470717252,0.019));
#1062=CARTESIAN_POINT('',(0.0461478958107719,0.0177536909364032,0.017));
#1063=CARTESIAN_POINT('',(0.0461478958107719,0.0177536909364032,0.019));
#1064=CARTESIAN_POINT('',(0.046607763004965,0.0177127275855443,0.017));
#1065=CARTESIAN_POINT('',(0.046607763004965,0.0177127275855443,0.019));
#1066=CARTESIAN_POINT('',(0.0465819224047895,0.0173941029636157,0.017));
#1067=CARTESIAN_POINT('',(0.0465819224047895,0.0173941029636157,0.019));
#1068=CARTESIAN_POINT('',(0.0464704035890926,0.0172534348378556,0.017));
#1069=CARTESIAN_POINT('',(0.0464704035890926,0.0172534348378556,0.019));
#1070=CARTESIAN_POINT('',(0.0464972043106512,0.0174207297665879,0.017));
#1071=CARTESIAN_POINT('',(0.0464972043106512,0.0174207297665879,0.019));
#1072=CARTESIAN_POINT('',(0.0465076193213463,0.0174967385828495,0.017));
#1073=CARTESIAN_POINT('',(0.0465076193213463,0.0174967385828495,0.019));
#1074=CARTESIAN_POINT('',(0.0351024270057679,-0.0215665865689516,0.019));
#1075=CARTESIAN_POINT('',(0.0342765023300481,-0.019804338401599,0.019));
#1076=CARTESIAN_POINT('',(0.0320944928138879,-0.0151394547235474,0.019));
#1077=CARTESIAN_POINT('',(0.0568168577526883,-0.0102114670257857,0.019));
#1078=CARTESIAN_POINT('',(0.0239082975513402,0.000824685642696841,0.019));
#1079=CARTESIAN_POINT('',(0.0572420557539885,0.00556839376836721,0.019));
#1080=CARTESIAN_POINT('',(0.0247250630176148,0.008342155466357,0.019));
#1081=CARTESIAN_POINT('',(0.047356697059038,0.0191008609805464,0.019));
#1082=CARTESIAN_POINT('',(0.046463106814867,0.0171556854203943,0.019));
#1083=CARTESIAN_POINT('',(0.046494322659838,0.0173996994600813,0.019));
#1084=CARTESIAN_POINT('',(0.0465076193213463,0.0174967385828495,0.019));
#1085=CARTESIAN_POINT('',(0.0351024270057679,-0.0215665865689516,0.019));
#1086=CARTESIAN_POINT('',(0.0465076193213463,0.0174967385828495,0.019));
#1087=CARTESIAN_POINT('',(0.0351024270057679,-0.0215665865689516,0.017));
#1088=CARTESIAN_POINT('',(0.0351024270057679,-0.0215665865689516,0.017));
#1089=CARTESIAN_POINT('',(0.0351024270057679,-0.0215665865689516,0.017));
#1090=CARTESIAN_POINT('',(0.0342765023300481,-0.019804338401599,0.017));
#1091=CARTESIAN_POINT('',(0.0320944928138879,-0.0151394547235474,0.017));
#1092=CARTESIAN_POINT('',(0.0568168577526883,-0.0102114670257857,0.017));
#1093=CARTESIAN_POINT('',(0.0239082975513402,0.000824685642696841,0.017));
#1094=CARTESIAN_POINT('',(0.0572420557539885,0.00556839376836721,0.017));
#1095=CARTESIAN_POINT('',(0.0247250630176148,0.008342155466357,0.017));
#1096=CARTESIAN_POINT('',(0.047356697059038,0.0191008609805464,0.017));
#1097=CARTESIAN_POINT('',(0.046463106814867,0.0171556854203943,0.017));
#1098=CARTESIAN_POINT('',(0.046494322659838,0.0173996994600813,0.017));
#1099=CARTESIAN_POINT('',(0.0465076193213463,0.0174967385828495,0.017));
#1100=CARTESIAN_POINT('',(0.0465076193213463,0.0174967385828495,0.017));
#1101=CARTESIAN_POINT('',(0.0465076193213463,0.0174967385828495,0.017));
#1102=CARTESIAN_POINT('',(0.,0.,0.));
#1103=CARTESIAN_POINT('',(0.,0.,0.017));
#1104=CARTESIAN_POINT('',(-0.0352570784986065,-0.009,0.017));
#1105=CARTESIAN_POINT('',(-0.0252570784986065,-0.009,0.017));
#1106=CARTESIAN_POINT('',(0.029119523242116,0.0116013055667281,0.017));
#1107=CARTESIAN_POINT('',(0.032719523242116,0.0116013055667281,0.017));
#1108=CARTESIAN_POINT('',(6.93889390390723E-18,0.0235,0.017));
#1109=CARTESIAN_POINT('',(-0.0495,0.0235,0.017));
#1110=CARTESIAN_POINT('',(0.0495,0.0235,0.017));
#1111=CARTESIAN_POINT('',(-0.0495,0.,0.017));
#1112=CARTESIAN_POINT('',(-0.0495,-0.0235,0.017));
#1113=CARTESIAN_POINT('',(0.,-0.0235,0.017));
#1114=CARTESIAN_POINT('',(0.0495,-0.0235,0.017));
#1115=CARTESIAN_POINT('',(0.0495,0.,0.017));
#1116=CARTESIAN_POINT('',(0.0134639208674431,0.0108561385422945,0.017));
#1117=CARTESIAN_POINT('',(0.0134639208674431,0.0037561385422945,0.017));
#1118=CARTESIAN_POINT('',(0.0134639208674431,0.0179561385422945,0.017));
#1119=CARTESIAN_POINT('',(0.00636392086744309,0.0037561385422945,0.017));
#1120=CARTESIAN_POINT('',(-0.000736079132556913,0.00375613854229451,0.017));
#1121=CARTESIAN_POINT('',(-0.000736079132556914,0.0108561385422945,0.017));
#1122=CARTESIAN_POINT('',(-0.000736079132556915,0.0179561385422945,0.017));
#1123=CARTESIAN_POINT('',(0.00636392086744308,0.0179561385422945,0.017));
#1124=CARTESIAN_POINT('',(-0.0205521322324872,-0.00873581878840924,0.017));
#1125=CARTESIAN_POINT('',(-0.0205521322324872,-0.00163581878840923,0.017));
#1126=CARTESIAN_POINT('',(-0.0205521322324872,-0.0158358187884092,0.017));
#1127=CARTESIAN_POINT('',(-0.0134521322324872,-0.00163581878840923,0.017));
#1128=CARTESIAN_POINT('',(-0.0063521322324872,-0.00163581878840924,0.017));
#1129=CARTESIAN_POINT('',(-0.0063521322324872,-0.00873581878840924,0.017));
#1130=CARTESIAN_POINT('',(-0.0063521322324872,-0.0158358187884092,0.017));
#1131=CARTESIAN_POINT('',(-0.0134521322324872,-0.0158358187884092,0.017));
#1132=CARTESIAN_POINT('',(0.0063208001665771,-0.0156698552429676,0.017));
#1133=CARTESIAN_POINT('',(-0.0007791998334229,-0.0156698552429676,0.017));
#1134=CARTESIAN_POINT('',(0.0134208001665771,-0.0156698552429676,0.017));
#1135=CARTESIAN_POINT('',(-0.000779199833422898,-0.00856985524296761,0.017));
#1136=CARTESIAN_POINT('',(-0.0007791998334229,-0.0014698552429676,0.017));
#1137=CARTESIAN_POINT('',(0.0063208001665771,-0.0014698552429676,0.017));
#1138=CARTESIAN_POINT('',(0.0134208001665771,-0.0014698552429676,0.017));
#1139=CARTESIAN_POINT('',(0.0134208001665771,-0.00856985524296761,0.017));
#1140=CARTESIAN_POINT('',(0.0191677147984505,-0.00871671177446842,0.017));
#1141=CARTESIAN_POINT('',(0.0191677147984505,-0.00161671177446842,0.017));
#1142=CARTESIAN_POINT('',(0.0191677147984505,-0.0158167117744684,0.017));
#1143=CARTESIAN_POINT('',(0.0262677147984504,-0.00161671177446842,0.017));
#1144=CARTESIAN_POINT('',(0.0333677147984505,-0.00161671177446842,0.017));
#1145=CARTESIAN_POINT('',(0.0333677147984505,-0.00871671177446842,0.017));
#1146=CARTESIAN_POINT('',(0.0333677147984505,-0.0158167117744684,0.017));
#1147=CARTESIAN_POINT('',(0.0262677147984504,-0.0158167117744684,0.017));
#1148=CARTESIAN_POINT('',(-0.03765,0.0108736446127296,0.017));
#1149=CARTESIAN_POINT('',(-0.03765,0.0168736446127296,0.017));
#1150=CARTESIAN_POINT('',(-0.03765,0.00487364461272957,0.017));
#1151=CARTESIAN_POINT('',(-0.02265,0.0168736446127296,0.017));
#1152=CARTESIAN_POINT('',(-0.00765,0.0168736446127296,0.017));
#1153=CARTESIAN_POINT('',(-0.00765,0.0108736446127296,0.017));
#1154=CARTESIAN_POINT('',(-0.00765,0.00487364461272957,0.017));
#1155=CARTESIAN_POINT('',(-0.02265,0.00487364461272957,0.017));
#1156=CARTESIAN_POINT('',(0.,0.,0.014));
#1157=CARTESIAN_POINT('',(-0.0352570784986065,-0.009,0.014));
#1158=CARTESIAN_POINT('',(-0.0252570784986065,-0.009,0.014));
#1159=CARTESIAN_POINT('',(0.0262677147984504,-0.00161671177446842,0.014));
#1160=CARTESIAN_POINT('',(0.0191677147984505,-0.00161671177446842,0.014));
#1161=CARTESIAN_POINT('',(0.0333677147984505,-0.00161671177446842,0.014));
#1162=CARTESIAN_POINT('',(0.0191677147984505,-0.00871671177446842,0.014));
#1163=CARTESIAN_POINT('',(0.0191677147984505,-0.0158167117744684,0.014));
#1164=CARTESIAN_POINT('',(0.0262677147984504,-0.0158167117744684,0.014));
#1165=CARTESIAN_POINT('',(0.0333677147984505,-0.0158167117744684,0.014));
#1166=CARTESIAN_POINT('',(0.0333677147984505,-0.00871671177446842,0.014));
#1167=CARTESIAN_POINT('',(-0.0134521322324872,-0.00163581878840923,0.014));
#1168=CARTESIAN_POINT('',(-0.0205521322324872,-0.00163581878840923,0.014));
#1169=CARTESIAN_POINT('',(-0.0063521322324872,-0.00163581878840924,0.014));
#1170=CARTESIAN_POINT('',(-0.0205521322324872,-0.00873581878840924,0.014));
#1171=CARTESIAN_POINT('',(-0.0205521322324872,-0.0158358187884092,0.014));
#1172=CARTESIAN_POINT('',(-0.0134521322324872,-0.0158358187884092,0.014));
#1173=CARTESIAN_POINT('',(-0.0063521322324872,-0.0158358187884092,0.014));
#1174=CARTESIAN_POINT('',(-0.0063521322324872,-0.00873581878840924,0.014));
#1175=CARTESIAN_POINT('',(6.93889390390723E-18,0.0235,0.014));
#1176=CARTESIAN_POINT('',(-0.0495,0.0235,0.014));
#1177=CARTESIAN_POINT('',(0.0495,0.0235,0.014));
#1178=CARTESIAN_POINT('',(0.0495,0.,0.014));
#1179=CARTESIAN_POINT('',(0.0495,-0.0235,0.014));
#1180=CARTESIAN_POINT('',(0.,-0.0235,0.014));
#1181=CARTESIAN_POINT('',(-0.0495,-0.0235,0.014));
#1182=CARTESIAN_POINT('',(-0.0495,0.,0.014));
#1183=CARTESIAN_POINT('',(0.00636392086744309,0.0037561385422945,0.014));
#1184=CARTESIAN_POINT('',(0.0134639208674431,0.0037561385422945,0.014));
#1185=CARTESIAN_POINT('',(-0.000736079132556913,0.00375613854229451,0.014));
#1186=CARTESIAN_POINT('',(0.0134639208674431,0.0108561385422945,0.014));
#1187=CARTESIAN_POINT('',(0.0134639208674431,0.0179561385422945,0.014));
#1188=CARTESIAN_POINT('',(0.00636392086744308,0.0179561385422945,0.014));
#1189=CARTESIAN_POINT('',(-0.000736079132556915,0.0179561385422945,0.014));
#1190=CARTESIAN_POINT('',(-0.000736079132556914,0.0108561385422945,0.014));
#1191=CARTESIAN_POINT('',(-0.000779199833422898,-0.00856985524296761,0.014));
#1192=CARTESIAN_POINT('',(-0.0007791998334229,-0.0156698552429676,0.014));
#1193=CARTESIAN_POINT('',(-0.0007791998334229,-0.0014698552429676,0.014));
#1194=CARTESIAN_POINT('',(0.0063208001665771,-0.0156698552429676,0.014));
#1195=CARTESIAN_POINT('',(0.0134208001665771,-0.0156698552429676,0.014));
#1196=CARTESIAN_POINT('',(0.0134208001665771,-0.00856985524296761,0.014));
#1197=CARTESIAN_POINT('',(0.0134208001665771,-0.0014698552429676,0.014));
#1198=CARTESIAN_POINT('',(0.0063208001665771,-0.0014698552429676,0.014));
#1199=CARTESIAN_POINT('',(0.029119523242116,0.0116013055667281,0.014));
#1200=CARTESIAN_POINT('',(0.032719523242116,0.0116013055667281,0.014));
#1201=CARTESIAN_POINT('',(-0.02265,0.0168736446127296,0.014));
#1202=CARTESIAN_POINT('',(-0.03765,0.0168736446127296,0.014));
#1203=CARTESIAN_POINT('',(-0.00765,0.0168736446127296,0.014));
#1204=CARTESIAN_POINT('',(-0.03765,0.0108736446127296,0.014));
#1205=CARTESIAN_POINT('',(-0.03765,0.00487364461272957,0.014));
#1206=CARTESIAN_POINT('',(-0.02265,0.00487364461272957,0.014));
#1207=CARTESIAN_POINT('',(-0.00765,0.00487364461272957,0.014));
#1208=CARTESIAN_POINT('',(-0.00765,0.0108736446127296,0.014));
#1209=CARTESIAN_POINT('',(6.93889390390723E-18,0.0235,0.017));
#1210=CARTESIAN_POINT('',(-0.0495,0.0235,0.017));
#1211=CARTESIAN_POINT('',(0.0495,0.0235,0.017));
#1212=CARTESIAN_POINT('',(-0.0495,0.,0.017));
#1213=CARTESIAN_POINT('',(-0.0495,-0.0235,0.017));
#1214=CARTESIAN_POINT('',(0.,-0.0235,0.017));
#1215=CARTESIAN_POINT('',(0.0495,-0.0235,0.017));
#1216=CARTESIAN_POINT('',(0.0495,0.,0.017));
#1217=CARTESIAN_POINT('',(0.00636392086744309,0.0037561385422945,0.014));
#1218=CARTESIAN_POINT('',(0.0134639208674431,0.0037561385422945,0.014));
#1219=CARTESIAN_POINT('',(-0.000736079132556913,0.00375613854229451,0.014));
#1220=CARTESIAN_POINT('',(0.0134639208674431,0.0108561385422945,0.014));
#1221=CARTESIAN_POINT('',(0.0134639208674431,0.0179561385422945,0.014));
#1222=CARTESIAN_POINT('',(0.00636392086744308,0.0179561385422945,0.014));
#1223=CARTESIAN_POINT('',(-0.000736079132556915,0.0179561385422945,0.014));
#1224=CARTESIAN_POINT('',(-0.000736079132556914,0.0108561385422945,0.014));
#1225=CARTESIAN_POINT('',(-0.0134521322324872,-0.00163581878840923,0.014));
#1226=CARTESIAN_POINT('',(-0.0205521322324872,-0.00163581878840923,0.014));
#1227=CARTESIAN_POINT('',(-0.0063521322324872,-0.00163581878840924,0.014));
#1228=CARTESIAN_POINT('',(-0.0205521322324872,-0.00873581878840924,0.014));
#1229=CARTESIAN_POINT('',(-0.0205521322324872,-0.0158358187884092,0.014));
#1230=CARTESIAN_POINT('',(-0.0134521322324872,-0.0158358187884092,0.014));
#1231=CARTESIAN_POINT('',(-0.0063521322324872,-0.0158358187884092,0.014));
#1232=CARTESIAN_POINT('',(-0.0063521322324872,-0.00873581878840924,0.014));
#1233=CARTESIAN_POINT('',(-0.000779199833422898,-0.00856985524296761,0.014));
#1234=CARTESIAN_POINT('',(-0.0007791998334229,-0.0156698552429676,0.014));
#1235=CARTESIAN_POINT('',(-0.0007791998334229,-0.0014698552429676,0.014));
#1236=CARTESIAN_POINT('',(0.0063208001665771,-0.0156698552429676,0.014));
#1237=CARTESIAN_POINT('',(0.0134208001665771,-0.0156698552429676,0.014));
#1238=CARTESIAN_POINT('',(0.0134208001665771,-0.00856985524296761,0.014));
#1239=CARTESIAN_POINT('',(0.0134208001665771,-0.0014698552429676,0.014));
#1240=CARTESIAN_POINT('',(0.0063208001665771,-0.0014698552429676,0.014));
#1241=CARTESIAN_POINT('',(0.0262677147984504,-0.00161671177446842,0.014));
#1242=CARTESIAN_POINT('',(0.0191677147984505,-0.00161671177446842,0.014));
#1243=CARTESIAN_POINT('',(0.0333677147984505,-0.00161671177446842,0.014));
#1244=CARTESIAN_POINT('',(0.0191677147984505,-0.00871671177446842,0.014));
#1245=CARTESIAN_POINT('',(0.0191677147984505,-0.0158167117744684,0.014));
#1246=CARTESIAN_POINT('',(0.0262677147984504,-0.0158167117744684,0.014));
#1247=CARTESIAN_POINT('',(0.0333677147984505,-0.0158167117744684,0.014));
#1248=CARTESIAN_POINT('',(0.0333677147984505,-0.00871671177446842,0.014));
#1249=CARTESIAN_POINT('',(0.029119523242116,0.0116013055667281,0.014));
#1250=CARTESIAN_POINT('',(-0.02265,0.0168736446127296,0.014));
#1251=CARTESIAN_POINT('',(-0.03765,0.0168736446127296,0.014));
#1252=CARTESIAN_POINT('',(-0.00765,0.0168736446127296,0.014));
#1253=CARTESIAN_POINT('',(-0.03765,0.0108736446127296,0.014));
#1254=CARTESIAN_POINT('',(-0.03765,0.00487364461272957,0.014));
#1255=CARTESIAN_POINT('',(-0.02265,0.00487364461272957,0.014));
#1256=CARTESIAN_POINT('',(-0.00765,0.00487364461272957,0.014));
#1257=CARTESIAN_POINT('',(-0.00765,0.0108736446127296,0.014));
#1258=CARTESIAN_POINT('',(-0.0352570784986065,-0.009,0.014));
#1259=CARTESIAN_POINT('',(0.,0.,0.));
#1260=CARTESIAN_POINT('',(-0.0352570784986065,-0.009,0.017));
#1261=CARTESIAN_POINT('',(-0.0352570784986065,-0.009,0.017));
#1262=CARTESIAN_POINT('',(-0.0242570784986065,-0.009,0.017));
#1263=CARTESIAN_POINT('',(-0.0352570784986065,-0.009,0.018));
#1264=CARTESIAN_POINT('',(-0.0242570784986065,-0.009,0.018));
#1265=MECHANICAL_DESIGN_GEOMETRIC_PRESENTATION_REPRESENTATION('',(#653),
#1269);
#1266=MECHANICAL_DESIGN_GEOMETRIC_PRESENTATION_REPRESENTATION('',(#654),
#1270);
#1267=MECHANICAL_DESIGN_GEOMETRIC_PRESENTATION_REPRESENTATION('',(#655),
#1271);
#1268=MECHANICAL_DESIGN_GEOMETRIC_PRESENTATION_REPRESENTATION('',(#656),
#1272);
#1269=(
GEOMETRIC_REPRESENTATION_CONTEXT(3)
GLOBAL_UNCERTAINTY_ASSIGNED_CONTEXT((#1273))
GLOBAL_UNIT_ASSIGNED_CONTEXT((#1285,#1281,#1277))
REPRESENTATION_CONTEXT('Surface 2','TOP_LEVEL_ASSEMBLY_PART')
);
#1270=(
GEOMETRIC_REPRESENTATION_CONTEXT(3)
GLOBAL_UNCERTAINTY_ASSIGNED_CONTEXT((#1274))
GLOBAL_UNIT_ASSIGNED_CONTEXT((#1286,#1282,#1278))
REPRESENTATION_CONTEXT('Surface 1','TOP_LEVEL_ASSEMBLY_PART')
);
#1271=(
GEOMETRIC_REPRESENTATION_CONTEXT(3)
GLOBAL_UNCERTAINTY_ASSIGNED_CONTEXT((#1275))
GLOBAL_UNIT_ASSIGNED_CONTEXT((#1287,#1283,#1279))
REPRESENTATION_CONTEXT('Part 2','TOP_LEVEL_ASSEMBLY_PART')
);
#1272=(
GEOMETRIC_REPRESENTATION_CONTEXT(3)
GLOBAL_UNCERTAINTY_ASSIGNED_CONTEXT((#1276))
GLOBAL_UNIT_ASSIGNED_CONTEXT((#1288,#1284,#1280))
REPRESENTATION_CONTEXT('Surface 3','TOP_LEVEL_ASSEMBLY_PART')
);
#1273=UNCERTAINTY_MEASURE_WITH_UNIT(LENGTH_MEASURE(2.E-5),#1285,
'DISTANCE_ACCURACY_VALUE','Maximum Tolerance applied to model');
#1274=UNCERTAINTY_MEASURE_WITH_UNIT(LENGTH_MEASURE(2.E-5),#1286,
'DISTANCE_ACCURACY_VALUE','Maximum Tolerance applied to model');
#1275=UNCERTAINTY_MEASURE_WITH_UNIT(LENGTH_MEASURE(1.E-8),#1287,
'DISTANCE_ACCURACY_VALUE','Maximum Tolerance applied to model');
#1276=UNCERTAINTY_MEASURE_WITH_UNIT(LENGTH_MEASURE(1.E-8),#1288,
'DISTANCE_ACCURACY_VALUE','Maximum Tolerance applied to model');
#1277=(
NAMED_UNIT(*)
SI_UNIT($,.STERADIAN.)
SOLID_ANGLE_UNIT()
);
#1278=(
NAMED_UNIT(*)
SI_UNIT($,.STERADIAN.)
SOLID_ANGLE_UNIT()
);
#1279=(
NAMED_UNIT(*)
SI_UNIT($,.STERADIAN.)
SOLID_ANGLE_UNIT()
);
#1280=(
NAMED_UNIT(*)
SI_UNIT($,.STERADIAN.)
SOLID_ANGLE_UNIT()
);
#1281=(
NAMED_UNIT(*)
PLANE_ANGLE_UNIT()
SI_UNIT($,.RADIAN.)
);
#1282=(
NAMED_UNIT(*)
PLANE_ANGLE_UNIT()
SI_UNIT($,.RADIAN.)
);
#1283=(
NAMED_UNIT(*)
PLANE_ANGLE_UNIT()
SI_UNIT($,.RADIAN.)
);
#1284=(
NAMED_UNIT(*)
PLANE_ANGLE_UNIT()
SI_UNIT($,.RADIAN.)
);
#1285=(
LENGTH_UNIT()
NAMED_UNIT(*)
SI_UNIT($,.METRE.)
);
#1286=(
LENGTH_UNIT()
NAMED_UNIT(*)
SI_UNIT($,.METRE.)
);
#1287=(
LENGTH_UNIT()
NAMED_UNIT(*)
SI_UNIT($,.METRE.)
);
#1288=(
LENGTH_UNIT()
NAMED_UNIT(*)
SI_UNIT($,.METRE.)
);
#1289=PRODUCT_DEFINITION_SHAPE('','',#1293);
#1290=PRODUCT_DEFINITION_SHAPE('','',#1294);
#1291=PRODUCT_DEFINITION_SHAPE('','',#1295);
#1292=PRODUCT_DEFINITION_SHAPE('','',#1296);
#1293=PRODUCT_DEFINITION('','',#1301,#1297);
#1294=PRODUCT_DEFINITION('','',#1302,#1298);
#1295=PRODUCT_DEFINITION('','',#1303,#1299);
#1296=PRODUCT_DEFINITION('','',#1304,#1300);
#1297=PRODUCT_DEFINITION_CONTEXT('',#1325,'design');
#1298=PRODUCT_DEFINITION_CONTEXT('',#1326,'design');
#1299=PRODUCT_DEFINITION_CONTEXT('',#1327,'design');
#1300=PRODUCT_DEFINITION_CONTEXT('',#1328,'design');
#1301=PRODUCT_DEFINITION_FORMATION_WITH_SPECIFIED_SOURCE('','',#1309,
 .NOT_KNOWN.);
#1302=PRODUCT_DEFINITION_FORMATION_WITH_SPECIFIED_SOURCE('','',#1310,
 .NOT_KNOWN.);
#1303=PRODUCT_DEFINITION_FORMATION_WITH_SPECIFIED_SOURCE('','',#1311,
 .NOT_KNOWN.);
#1304=PRODUCT_DEFINITION_FORMATION_WITH_SPECIFIED_SOURCE('','',#1312,
 .NOT_KNOWN.);
#1305=PRODUCT_RELATED_PRODUCT_CATEGORY('','',(#1309));
#1306=PRODUCT_RELATED_PRODUCT_CATEGORY('','',(#1310));
#1307=PRODUCT_RELATED_PRODUCT_CATEGORY('','',(#1311));
#1308=PRODUCT_RELATED_PRODUCT_CATEGORY('','',(#1312));
#1309=PRODUCT('Surface 2','Surface 2','Surface 2',(#1317));
#1310=PRODUCT('Surface 1','Surface 1','Surface 1',(#1318));
#1311=PRODUCT('Part 2','Part 2','Part 2',(#1319));
#1312=PRODUCT('Surface 3','Surface 3','Surface 3',(#1320));
#1313=PRODUCT_CATEGORY('','');
#1314=PRODUCT_CATEGORY('','');
#1315=PRODUCT_CATEGORY('','');
#1316=PRODUCT_CATEGORY('','');
#1317=PRODUCT_CONTEXT('',#1325,'mechanical');
#1318=PRODUCT_CONTEXT('',#1326,'mechanical');
#1319=PRODUCT_CONTEXT('',#1327,'mechanical');
#1320=PRODUCT_CONTEXT('',#1328,'mechanical');
#1321=APPLICATION_PROTOCOL_DEFINITION('international standard',
'ap242_managed_model_based_3d_engineering',2020,#1325);
#1322=APPLICATION_PROTOCOL_DEFINITION('international standard',
'ap242_managed_model_based_3d_engineering',2020,#1326);
#1323=APPLICATION_PROTOCOL_DEFINITION('international standard',
'ap242_managed_model_based_3d_engineering',2020,#1327);
#1324=APPLICATION_PROTOCOL_DEFINITION('international standard',
'ap242_managed_model_based_3d_engineering',2020,#1328);
#1325=APPLICATION_CONTEXT('managed model based 3d engineering');
#1326=APPLICATION_CONTEXT('managed model based 3d engineering');
#1327=APPLICATION_CONTEXT('managed model based 3d engineering');
#1328=APPLICATION_CONTEXT('managed model based 3d engineering');
ENDSEC;
END-ISO-10303-21;
